Coordinates
version=1
nRows=10
nColumns=40
inDegrees=yes

Units are S.I. units (second, meters, Newtons, ...)
Angles are in degrees.

endheader
time	pelvis_tilt	pelvis_list	pelvis_rotation	pelvis_tx	pelvis_ty	pelvis_tz	hip_flexion_r	hip_adduction_r	hip_rotation_r	knee_angle_r	knee_angle_r_beta	ankle_angle_r	subtalar_angle_r	mtp_angle_r	hip_flexion_l	hip_adduction_l	hip_rotation_l	knee_angle_l	knee_angle_l_beta	ankle_angle_l	subtalar_angle_l	mtp_angle_l	lumbar_extension	lumbar_bending	lumbar_rotation	arm_flex_r	arm_add_r	arm_rot_r	elbow_flex_r	pro_sup_r	wrist_flex_r	wrist_dev_r	arm_flex_l	arm_add_l	arm_rot_l	elbow_flex_l	pro_sup_l	wrist_flex_l	wrist_dev_l
      0.00000000	    -34.07430662	      0.69919785	     -4.00027217	     -2.04539918	      0.93503482	      0.22813746	     38.60693947	      1.50550984	     -8.60428855	      7.23120242	      7.23120242	     -3.17604459	      0.00000000	      0.00000000	     35.41800167	     -3.92215910	     -8.55384211	      3.05302902	      3.05302902	     -6.07794231	      0.00000000	      0.00000000	     36.37157436	      1.13984091	     -2.39201609	     -7.50540481	    -14.25246943	     22.01620688	     27.26244219	     58.90019871	      0.00000000	      0.00000000	     -5.04838891	    -11.58865090	     23.91366741	     20.55823311	     58.72281340	      0.00000000	      0.00000000
      0.01000000	    -34.08059171	      0.71067174	     -4.01888169	     -2.04530661	      0.93501309	      0.22828824	     38.59888532	      1.51723810	     -8.57876192	      7.21430990	      7.21430990	     -3.16739944	      0.00000000	      0.00000000	     35.41072787	     -3.93194830	     -8.58284849	      3.04773210	      3.04773210	     -6.06987750	      0.00000000	      0.00000000	     36.35569618	      1.15410344	     -2.39368200	     -7.48270105	    -14.31632583	     22.24613708	     27.32394118	     58.41994803	      0.00000000	      0.00000000	     -4.96466877	    -11.60116444	     24.11032918	     20.58116021	     58.47167652	      0.00000000	      0.00000000
      0.02000000	    -34.07814163	      0.72447798	     -4.03372756	     -2.04520479	      0.93500711	      0.22843042	     38.57971682	      1.52196223	     -8.54115764	      7.19623027	      7.19623027	     -3.17553637	      0.00000000	      0.00000000	     35.39127160	     -3.93399329	     -8.58445421	      3.03682624	      3.03682624	     -6.07418670	      0.00000000	      0.00000000	     36.33004882	      1.16623889	     -2.37831902	     -7.46644648	    -14.37377578	     22.44435493	     27.37557000	     57.97110461	      0.00000000	      0.00000000	     -4.87828793	    -11.62061644	     24.33753179	     20.62893495	     58.21579373	      0.00000000	      0.00000000
      0.03000000	    -34.10093761	      0.73872878	     -4.05337534	     -2.04514238	      0.93498177	      0.22859429	     38.59592814	      1.53822136	     -8.53309333	      7.18802263	      7.18802263	     -3.15955514	      0.00000000	      0.00000000	     35.41184673	     -3.94586272	     -8.61494746	      3.04984340	      3.04984340	     -6.06557566	      0.00000000	      0.00000000	     36.33444897	      1.17217066	     -2.38520445	     -7.44638347	    -14.40027509	     22.51177622	     27.39382500	     57.76131450	      0.00000000	      0.00000000	     -4.80123309	    -11.61356792	     24.41751133	     20.63019721	     58.09419041	      0.00000000	      0.00000000
      0.04000000	    -34.11849802	      0.75334772	     -4.07912277	     -2.04508847	      0.93494268	      0.22875930	     38.60889283	      1.54715391	     -8.49605830	      7.18428971	      7.18428971	     -3.16687848	      0.00000000	      0.00000000	     35.41351257	     -3.96065375	     -8.63408185	      3.02552680	      3.02552680	     -6.05023718	      0.00000000	      0.00000000	     36.32598187	      1.18964771	     -2.37699568	     -7.42676495	    -14.44850774	     22.64395065	     27.43628723	     57.52306418	      0.00000000	      0.00000000	     -4.72578579	    -11.63480066	     24.58946956	     20.67178139	     57.97277587	      0.00000000	      0.00000000
      0.05000000	    -34.15510049	      0.76358180	     -4.08886722	     -2.04506222	      0.93488347	      0.22890593	     38.63761947	      1.55313280	     -8.46806628	      7.17074251	      7.17074251	     -3.17426972	      0.00000000	      0.00000000	     35.44882958	     -3.97097828	     -8.64334241	      3.03066856	      3.03066856	     -6.06516953	      0.00000000	      0.00000000	     36.33883649	      1.19865363	     -2.39427597	     -7.40959241	    -14.49107851	     22.72233162	     27.45814387	     57.61897272	      0.00000000	      0.00000000	     -4.66783659	    -11.67059973	     24.76879214	     20.73264881	     58.09834536	      0.00000000	      0.00000000
      0.06000000	    -34.16085952	      0.77547574	     -4.11839151	     -2.04501936	      0.93488050	      0.22906735	     38.64419916	      1.57136009	     -8.45178485	      7.17747659	      7.17747659	     -3.18149494	      0.00000000	      0.00000000	     35.44243982	     -3.98714416	     -8.69320812	      3.02512039	      3.02512039	     -6.06123829	      0.00000000	      0.00000000	     36.32117496	      1.21872521	     -2.38660813	     -7.37916520	    -14.50305659	     22.73741329	     27.44097010	     57.55980574	      0.00000000	      0.00000000	     -4.58361349	    -11.63409504	     24.70499481	     20.72139088	     58.02777853	      0.00000000	      0.00000000
      0.07000000	    -34.21007811	      0.78673061	     -4.12809680	     -2.04503393	      0.93479823	      0.22919101	     38.68799909	      1.57619311	     -8.42314765	      7.15826310	      7.15826310	     -3.17730086	      0.00000000	      0.00000000	     35.49081975	     -3.99547909	     -8.65712522	      3.02490321	      3.02490321	     -6.07121754	      0.00000000	      0.00000000	     36.34771771	      1.22839321	     -2.41443771	     -7.35830700	    -14.55113001	     22.80850104	     27.46180951	     57.85298973	      0.00000000	      0.00000000	     -4.55498917	    -11.66540987	     24.73332498	     20.83555964	     58.19246972	      0.00000000	      0.00000000
      0.08000000	    -34.20967433	      0.80104275	     -4.15673513	     -2.04497765	      0.93478703	      0.22935367	     38.68128845	      1.59129689	     -8.40924515	      7.15144185	      7.15144185	     -3.16777994	      0.00000000	      0.00000000	     35.47325000	     -4.00871461	     -8.69363697	      3.00983928	      3.00983928	     -6.05677300	      0.00000000	      0.00000000	     36.31826779	      1.24423406	     -2.41954438	     -7.32351715	    -14.56102986	     22.81176603	     27.43281293	     57.94727750	      0.00000000	      0.00000000	     -4.48629959	    -11.63474104	     24.62520119	     20.84822134	     58.16446998	      0.00000000	      0.00000000
      0.09000000	    -34.23626062	      0.80525656	     -4.16927486	     -2.04493638	      0.93475268	      0.22952083	     38.70019954	      1.60650718	     -8.39420452	      7.14107473	      7.14107473	     -3.17509107	      0.00000000	      0.00000000	     35.48491134	     -4.02464602	     -8.67569576	      2.99122238	      2.99122238	     -6.05269987	      0.00000000	      0.00000000	     36.32192901	      1.25669398	     -2.42892943	     -7.30533703	    -14.58999607	     22.87978710	     27.41953468	     58.05095942	      0.00000000	      0.00000000	     -4.43977415	    -11.63964860	     24.56561276	     20.93794899	     58.12752111	      0.00000000	      0.00000000
